Coordinates
version=1
nRows=29
nColumns=22
inDegrees=yes

Units are S.I. units (second, meters, Newtons, ...)
If the header above contains a line with 'inDegrees', this indicates whether rotational values are in degrees (yes) or radians (no).

endheader
time	pelvis_tilt	pelvis_list	pelvis_rotation	pelvis_tx	pelvis_ty	pelvis_tz	hip_flexion_r	hip_adduction_r	hip_rotation_r	knee_angle_r	ankle_angle_r	subtalar_angle_r	hip_flexion_l	hip_adduction_l	hip_rotation_l	knee_angle_l	ankle_angle_l	subtalar_angle_l	lumbar_extension	lumbar_bending	lumbar_rotation
      1.35000000	      1.97492275	     -2.09251889	     -0.40589556	      0.65350378	      1.08408139	     -0.34531888	     -3.02254308	      2.23727026	     -2.70255687	     -8.90355914	      9.48155044	     -4.00139873	     -0.74760345	     -2.84792764	     -3.49800067	    -15.66859811	     13.75599721	      1.63700064	     -3.99333176	     -0.15687091	     -3.92012322
      1.36000000	      1.98789414	     -2.12925041	     -0.46105333	      0.65230523	      1.08422536	     -0.34474997	     -2.97842728	      2.31355985	     -2.62633043	     -8.87053729	      9.36544962	     -4.11992159	     -0.46494561	     -2.93158694	     -3.54400888	    -16.09441211	     13.73884760	      1.76269864	     -4.13608253	     -0.03086220	     -3.83683487
      1.37000000	      2.00965266	     -2.16141437	     -0.50993735	      0.65105408	      1.08437704	     -0.34412245	     -2.94199535	      2.38957026	     -2.57531680	     -8.83373161	      9.26000793	     -4.23608279	     -0.18611270	     -3.01410717	     -3.58571191	    -16.52306792	     13.69449698	      1.86780067	     -4.29416055	      0.08832519	     -3.74753241
      1.38000000	      2.02624026	     -2.18627884	     -0.55568165	      0.64968936	      1.08451351	     -0.34344352	     -2.88301844	      2.46183790	     -2.51404687	     -8.81803372	      9.15675510	     -4.37336454	      0.10968533	     -3.09119391	     -3.61708995	    -16.96013647	     13.64722058	      1.97561663	     -4.46104934	      0.20258481	     -3.66685916
      1.39000000	      2.03550193	     -2.20252733	     -0.59668390	      0.64821681	      1.08463448	     -0.34270073	     -2.79938526	      2.52957661	     -2.45544152	     -8.82308091	      9.05917159	     -4.52822572	      0.42307356	     -3.16212696	     -3.63572029	    -17.40197270	     13.59034628	      2.08388369	     -4.63269301	      0.30633574	     -3.59353680
      1.40000000	      2.02071639	     -2.20393430	     -0.63361444	      0.64661015	      1.08471553	     -0.34189285	     -2.66318126	      2.58648032	     -2.38335951	     -8.86677708	      8.96362370	     -4.72814103	      0.77380498	     -3.21941361	     -3.63302176	    -17.84956514	     13.54243931	      2.21311709	     -4.79373188	      0.39435286	     -3.54805314
      1.41000000	      2.02038672	     -2.19917052	     -0.65180806	      0.64492742	      1.08481802	     -0.34105080	     -2.53848475	      2.63925296	     -2.34472353	     -8.90948472	      8.87760919	     -4.88664706	      1.11664508	     -3.27378534	     -3.61955280	    -18.29668164	     13.45922889	      2.31255028	     -4.98186657	      0.47626793	     -3.50289551
      1.42000000	      2.00655000	     -2.18582616	     -0.65796695	      0.64315178	      1.08490139	     -0.34014680	     -2.38692576	      2.68755929	     -2.31927171	     -8.96752523	      8.79661404	     -5.04885706	      1.48191633	     -3.32152952	     -3.58181342	    -18.74378275	     13.37324056	      2.41937844	     -5.16507204	      0.54531055	     -3.47842279
      1.43000000	      2.00074323	     -2.17252050	     -0.64390229	      0.64128466	      1.08500043	     -0.33920664	     -2.23296088	      2.73768243	     -2.31748873	     -9.03712794	      8.71001626	     -5.18145972	      1.84659543	     -3.37185397	     -3.51591552	    -19.18976697	     13.26868323	      2.51919252	     -5.36992032	      0.61517338	     -3.47097729
      1.44000000	      1.98394872	     -2.14932668	     -0.60788775	      0.63933031	      1.08508322	     -0.33824355	     -2.05858745	      2.77935555	     -2.33506238	     -9.11602046	      8.62900931	     -5.30532687	      2.23241927	     -3.41230620	     -3.42225273	    -19.63551123	     13.15934605	      2.62991326	     -5.57259709	      0.67494045	     -3.48352838
      1.45000000	      1.95996706	     -2.12024746	     -0.55233849	      0.63729159	      1.08515309	     -0.33725206	     -1.86725488	      2.81618815	     -2.37065566	     -9.20493962	      8.54967511	     -5.41345444	      2.63704338	     -3.44829178	     -3.30927485	    -20.08577958	     13.04158610	      2.74851853	     -5.77624203	      0.72782025	     -3.51486434
      1.46000000	      1.92515917	     -2.08574814	     -0.47743278	      0.63517221	      1.08520774	     -0.33624202	     -1.65415693	      2.84784557	     -2.42489098	     -9.30533976	      8.47168031	     -5.50657771	      3.06336773	     -3.47982555	     -3.18202904	    -20.53832053	     12.91502464	      2.87419569	     -5.97579032	      0.77513223	     -3.55570370
      1.47000000	      1.86935339	     -2.04666832	     -0.38382020	      0.63296642	      1.08523252	     -0.33521337	     -1.40390502	      2.87586309	     -2.49951325	     -9.42447242	      8.39367142	     -5.59246919	      3.52315516	     -3.50753574	     -3.04532820	    -20.99430194	     12.77978188	      3.01209175	     -6.15867390	      0.81621885	     -3.60692411
      1.48000000	      1.79506804	     -1.99999523	     -0.28051195	      0.63068279	      1.08523599	     -0.33414969	     -1.11755974	      2.89671314	     -2.58970550	     -9.56569273	      8.31655291	     -5.67227840	      4.01180056	     -3.52964384	     -2.91038901	    -21.45355798	     12.62935145	      3.15907079	     -6.32540565	      0.84489218	     -3.66243054
      1.49000000	      1.69918895	     -1.94348393	     -0.16321685	      0.62831060	      1.08521762	     -0.33308624	     -0.79107683	      2.90637783	     -2.69513544	     -9.72944766	      8.24078817	     -5.74973565	      4.53183926	     -3.54244180	     -2.78417019	    -21.91085911	     12.46174925	      3.31627307	     -6.47302675	      0.86258539	     -3.71619518
      1.50000000	      1.58318335	     -1.87556684	     -0.03298573	      0.62584697	      1.08518680	     -0.33201345	     -0.42488360	      2.90379334	     -2.81684606	     -9.91717595	      8.16473117	     -5.82483717	      5.07652751	     -3.54443070	     -2.66477474	    -22.35640292	     12.27114985	      3.48354484	     -6.60226938	      0.86302084	     -3.76813575
      1.51000000	      1.44830048	     -1.79252857	      0.10415094	      0.62328870	      1.08514619	     -0.33093900	     -0.02176730	      2.88328020	     -2.95028486	    -10.12493836	      8.09097685	     -5.89731642	      5.64135758	     -3.53143129	     -2.55824898	    -22.78656752	     12.06018554	      3.66382501	     -6.71410760	      0.84406684	     -3.81477365
      1.52000000	      1.29737575	     -1.69248247	      0.25042976	      0.62063085	      1.08510530	     -0.32986276	      0.41266745	      2.84261871	     -3.09908026	    -10.34861553	      8.01845397	     -5.96431939	      6.21548584	     -3.50050227	     -2.45341074	    -23.18544768	     11.82447143	      3.86012704	     -6.81127302	      0.79920872	     -3.85833693
      1.53000000	      1.13119086	     -1.57628111	      0.40258000	      0.61786464	      1.08505884	     -0.32879063	      0.87764923	      2.78112657	     -3.25638350	    -10.58779452	      7.94669545	     -6.02583456	      6.79727098	     -3.45367421	     -2.35688533	    -23.55205757	     11.57706934	      4.08265100	     -6.89504616	      0.73110458	     -3.89895850
      1.54000000	      0.96213941	     -1.43689197	      0.56629818	      0.61499618	      1.08502982	     -0.32775406	      1.35289317	      2.68994845	     -3.42246372	    -10.83192771	      7.87725256	     -6.07693381	      7.36252104	     -3.37806374	     -2.24465193	    -23.86677066	     11.31233204	      4.33332025	     -6.97836740	      0.63408494	     -3.93747588
      1.55000000	      0.78141909	     -1.28206133	      0.73733725	      0.61201155	      1.08498838	     -0.32672785	      1.85004668	      2.57789901	     -3.59438472	    -11.08395105	      7.81130206	     -6.12188877	      7.92567656	     -3.28498310	     -2.11930562	    -24.14057692	     11.05762171	      4.63644636	     -7.05107223	      0.50974513	     -3.97898061
      1.56000000	      0.58001214	     -1.14105839	      0.90587631	      0.60891509	      1.08490315	     -0.32570177	      2.37884240	      2.47592512	     -3.76829629	    -11.34186056	      7.72939706	     -6.16794059	      8.50617249	     -3.21239697	     -2.01057513	    -24.39699501	     10.86325474	      5.04525703	     -7.10017361	      0.39320707	     -4.00114392
      1.57000000	      0.39946744	     -0.97056388	      1.08806053	      0.60573099	      1.08484116	     -0.32473173	      2.88789708	      2.33571155	     -3.95140210	    -11.60105481	      7.66271629	     -6.20542397	      9.03764817	     -3.09858959	     -1.85575150	    -24.59983492	     10.70325123	      5.50920778	     -7.17160651	      0.23830755	     -4.04684425
      1.58000000	      0.24784146	     -0.77785372	      1.27993133	      0.60247430	      1.08480317	     -0.32381693	      3.36259533	      2.16684618	     -4.12323614	    -11.85341569	      7.62966317	     -6.23929658	      9.51210697	     -2.95140612	     -1.65566357	    -24.76129557	     10.58456110	      6.00100050	     -7.27167606	      0.05410788	     -4.12242482
      1.59000000	      0.08182053	     -0.62139541	      1.45813437	      0.59913071	      1.08469187	     -0.32290127	      3.86402677	      2.03194217	     -4.31080325	    -12.11419147	      7.55866789	     -6.28298615	     10.00720946	     -2.85033026	     -1.48358490	    -24.95276435	     10.59220170	      6.64146327	     -7.34675805	     -0.09700784	     -4.17535526
      1.60000000	     -0.06270278	     -0.50034175	      1.61029311	      0.59574961	      1.08455761	     -0.32196436	      4.33381453	      1.93572467	     -4.47400260	    -12.34992481	      7.45809261	     -6.33665160	     10.47752288	     -2.79815847	     -1.35431621	    -25.18512881	     10.73605959	      7.37367969	     -7.43116384	     -0.21992347	     -4.19170071
      1.61000000	     -0.16170007	     -0.37114230	      1.78089858	      0.59233300	      1.08443322	     -0.32112351	      4.75223665	      1.82339199	     -4.66768240	    -12.58461737	      7.41886838	     -6.39150645	     10.88936410	     -2.72558189	     -1.18768689	    -25.45255387	     10.93446683	      7.97312614	     -7.55328225	     -0.34977457	     -4.26445582
      1.62000000	     -0.25434327	     -0.31273372	      1.90589411	      0.58888606	      1.08424278	     -0.32021227	      5.15476491	      1.79260787	     -4.81505836	    -12.78783154	      7.32834121	     -6.46031251	     11.31271478	     -2.75274406	     -1.11758837	    -25.84081410	     11.27560027	      8.58274529	     -7.65983998	     -0.41450875	     -4.28970915
      1.63000000	     -0.30910021	     -0.28140599	      2.00671268	      0.58543402	      1.08405448	     -0.31930965	      5.50232637	      1.79224548	     -4.93772203	    -12.95885754	      7.22275600	     -6.53437157	     11.69949952	     -2.82328991	     -1.12153011	    -26.34350870	     11.66496029	      9.03478202	     -7.78506206	     -0.45434614	     -4.31023700
